<svg id="Layer_1" data-name="Layer 1" xmlns="http://www.w3.org/2000/svg" viewBox="0 0 164.42 63.86"><title>agmalogo</title><path d="M95.64,65.05H73.2c-1.88-.76-3.87-.4-5.79-.47-17.34-.64-34.63-2.26-52-2.88a15.15,15.15,0,0,0-6.36,1,5.55,5.55,0,0,1-2.56.46c-.75-.06-1.6-.1-2-.88s.2-1.5.73-2c1.52-1.43,1.58-3.13,1.15-5-.86-3.68-1.62-7.38-2.53-11a43.68,43.68,0,0,1-.41-20.89c1-4.13,1.88-8.28,2.89-12.39.48-2,.41-3.77-1.19-5.3a1.72,1.72,0,0,1-.63-2c.41-.76,1.28-.72,2-.72A3.74,3.74,0,0,1,8,3.05c3.76,1.4,7.66,1.32,11.59,1.13,14.58-.69,29.15-1.76,43.73-2.5,26.1-1.33,52.08.33,78.08,2,6.65.43,13.39,1.73,20-.73a1.64,1.64,0,0,1,.7,0c.9.07,2.07-.23,2.51.76s-.37,1.66-.95,2.28a3.89,3.89,0,0,0-1,3.83c.46,1.92.71,3.89,1.14,5.82,1,4.5,2.09,9,3.15,13.48v7.68c-.09.07-.25.12-.26.2-1.1,6.54-2.87,12.93-4.21,19.42a3.77,3.77,0,0,0,.56,2.84c.42.63,1,1.16,1.37,1.81.69,1.23.32,1.88-1,1.95a8,8,0,0,1-3.29-.34,18,18,0,0,0-7.07-.9c-18.74.77-37.43,2.44-56.18,3C96.33,64.72,95.86,64.53,95.64,65.05Zm6.24-39.94a7.27,7.27,0,0,0-5.34-2.67c-5.55-.05-11.1,0-16.65-.05-.85,0-1.08.29-1.08,1.11q0,11,0,22c0,1,.34,1.19,1.22,1.16,2,0,4-.1,6,0,1.37.08,1.76-.33,1.75-1.72a91.13,91.13,0,0,1,.22-12c.28-2.3,1.78-3.64,3.61-3.45s2.66,1.49,2.67,3.86c0,4,0,8,0,12,0,1,.22,1.33,1.25,1.29,2.15-.07,4.32-.08,6.48,0,1.13.05,1.49-.28,1.46-1.44-.07-3.49,0-7,0-10.46a7.8,7.8,0,0,1,.68-3.57,2.85,2.85,0,0,1,3-1.7,2.8,2.8,0,0,1,2.62,2.22,8.85,8.85,0,0,1,.22,2.06c0,3.84,0,7.68,0,11.52,0,.69-.15,1.4,1,1.37,2.39-.07,4.78,0,7.18,0,.63,0,1-.18,1-.89-.15-5.69.41-11.4-.32-17.07a6.82,6.82,0,0,0-7-6.23c-2.45-.08-4.91,0-7.36,0S102,22.42,101.88,25.11Zm-38.59-3c-2.68,0-5.37.07-8,0-1.43-.05-2.43.07-2.63,1.82A8.2,8.2,0,0,1,51,27.18a10.11,10.11,0,0,0,2.33,14c.93.7,1.19,1.25.63,2.26-.3.53-.69,1.22-.19,1.79s1.3.13,1.94,0c1.68-.47,3.3-1.19,5.1-1.08a4.61,4.61,0,0,1,4.44,4.12c0,2.06-1.65,3.67-4.15,3.92A7,7,0,0,1,55,50c-.62-.66-1-.73-1.62,0-1.09,1.29-2.26,2.52-3.43,3.73-.53.54-.69.89,0,1.54,4.56,4.55,13.66,5.36,19,1.64s6-10.46,1.3-15c-.7-.68-.79-1,0-1.71a8.7,8.7,0,0,0,2.67-8.72c-.19-.91-1.15-2.08.64-2.58.14,0,.17-.64.17-1,0-1.51-.06-3,0-4.53.06-1-.31-1.3-1.29-1.28C69.37,22.17,66.33,22.14,63.29,22.14ZM45.2,36.41h-.09c0-2.09.11-4.19,0-6.28C44.87,26.41,43.15,24,40,23.22a28.8,28.8,0,0,0-14.72,0A7.45,7.45,0,0,0,19.65,30c-.09.95.18,1.22,1.11,1.2,2.27,0,4.55,0,6.83,0,.43,0,.82.06,1.06-.58a4.71,4.71,0,0,1,6.44-2.34,2,2,0,0,1,1,1.9c0,.9-.66,1-1.26,1.17-1.18.32-2.38.56-3.57.86A71.34,71.34,0,0,0,23,34.35a6.13,6.13,0,0,0-4.09,5.94,6,6,0,0,0,3.78,5.94c3.93,1.54,8.06,1.88,11.57-.61a11.2,11.2,0,0,1,7.66-1.94c.7,0,1.41,0,2.1,0,.92.08,1.24-.27,1.21-1.18C45.16,40.48,45.2,38.45,45.2,36.41Zm103.41.16h-.05c0-1.92.06-3.84,0-5.75-.16-4-2-6.79-5.25-7.6a28.91,28.91,0,0,0-14.72,0A7.41,7.41,0,0,0,123,29.57c-.19,1.08,0,1.76,1.38,1.66a48.4,48.4,0,0,1,5.25,0c1.3.05,2.4.1,2.63-1.64.08-.66.81-1.06,1.54-1.28a10.89,10.89,0,0,1,3.64-.26,1.92,1.92,0,0,1,2,1.82c.21,1.32-.85,1.35-1.64,1.56-3.66,1-7.36,1.82-11,2.86a5.79,5.79,0,0,0-4.54,5.7,6.31,6.31,0,0,0,4.1,6.47c3.84,1.25,7.91,1.56,11.27-.88,2.42-1.76,4.82-2,7.51-1.91.7,0,1.4,0,2.1,0,1,.1,1.43-.22,1.37-1.35C148.53,40.41,148.61,38.49,148.61,36.57ZM63.24,20.83c2.44.36,4.71.71,6.87-.3,1.67-.77,3.31-1.27,4.37,1.31.52-3.6.41-3.87-1.67-4.13,1.06-.93,2-1.74,2.93-2.59a.77.77,0,0,1,1.21,0c.93.84,1.88,1.66,3,2.6-2.19.16-2.38.63-1.7,4.34.9-3,2.66-2.3,4.4-1.53,2.17,1,4.41.63,7.18.58L76.85,10.27a.72.72,0,0,0-1.07,0ZM153.32,16c-.32-1.08-.53-1.74-.7-2.4s-.51-.68-1-.66-.56.46-.56.85a16.19,16.19,0,0,0,0,2.09c.07.57-.4,1.57.36,1.63s.21-1.06.58-1.52c.06-.07.17-.09.27-.14.5.52.09,1.75,1.08,1.73s.43-1.48,1.3-2c0,.45,0,.79.08,1.12s-.09.92.54.88.35-.51.36-.82c0-1,0-2,0-3,0-.39.1-.85-.55-.87s-.93,0-1.08.62S153.62,14.86,153.32,16Zm-6.92-2.63c1.83.16,1.57,1.37,1.53,2.46,0,.35,0,.69,0,1s0,.72.51.74.47-.4.48-.73c0-.75,0-1.5,0-2.25,0-.31-.13-.69.33-.87s1.15.23,1-.55c-.12-.49-.82-.27-1.25-.26A4.33,4.33,0,0,0,146.4,13.34Z" transform="translate(-2.4 -1.19)" style="fill:#ec1e25"/><path d="M101.88,25.11c.12-2.69.12-2.7,2.47-2.7s4.91-.05,7.36,0a6.82,6.82,0,0,1,7,6.23c.73,5.67.17,11.38.32,17.07,0,.71-.33.9-1,.89-2.4,0-4.79-.05-7.18,0-1.15,0-1-.68-1-1.37,0-3.84,0-7.68,0-11.52a8.85,8.85,0,0,0-.22-2.06,2.8,2.8,0,0,0-2.62-2.22,2.85,2.85,0,0,0-3,1.7,7.8,7.8,0,0,0-.68,3.57c0,3.48-.06,7,0,10.46,0,1.16-.33,1.49-1.46,1.44-2.16-.08-4.33-.07-6.48,0-1,0-1.27-.33-1.25-1.29,0-4,0-8,0-12,0-2.37-.93-3.69-2.67-3.86S88.23,30.61,88,32.91a91.13,91.13,0,0,0-.22,12c0,1.39-.38,1.8-1.75,1.72-2-.12-4-.06-6,0-.88,0-1.23-.21-1.22-1.16q0-11,0-22c0-.82.23-1.12,1.08-1.11,5.55,0,11.1,0,16.65.05A7.27,7.27,0,0,1,101.88,25.11Z" transform="translate(-2.4 -1.19)" style="fill:#fefbfb"/><path d="M63.29,22.14c3,0,6.08,0,9.11,0,1,0,1.35.26,1.29,1.28-.08,1.5,0,3,0,4.53,0,.34,0,.94-.17,1-1.79.5-.83,1.67-.64,2.58a8.7,8.7,0,0,1-2.67,8.72c-.75.7-.66,1,0,1.71,4.67,4.55,4.06,11.27-1.3,15s-14.44,2.91-19-1.64c-.65-.65-.49-1,0-1.54,1.17-1.21,2.34-2.44,3.43-3.73.62-.73,1-.66,1.62,0a7,7,0,0,0,6,2.1c2.5-.25,4.18-1.86,4.15-3.92a4.61,4.61,0,0,0-4.44-4.12c-1.8-.11-3.42.61-5.1,1.08-.64.17-1.35.72-1.94,0s-.11-1.26.19-1.79c.56-1,.3-1.56-.63-2.26a10.11,10.11,0,0,1-2.33-14,8.2,8.2,0,0,0,1.64-3.25c.2-1.75,1.2-1.87,2.63-1.82C57.92,22.21,60.61,22.14,63.29,22.14ZM61,29.69a4.1,4.1,0,0,0-4.34,3.84A4,4,0,0,0,61,37.41,3.87,3.87,0,1,0,61,29.69Z" transform="translate(-2.4 -1.19)" style="fill:#fefbfb"/><path d="M45.2,36.41c0,2,0,4.07,0,6.11,0,.91-.29,1.26-1.21,1.18-.69-.06-1.4,0-2.1,0a11.2,11.2,0,0,0-7.66,1.94c-3.51,2.49-7.64,2.15-11.57.61a6,6,0,0,1-3.78-5.94A6.13,6.13,0,0,1,23,34.35a71.34,71.34,0,0,1,8.28-2.14c1.19-.3,2.39-.54,3.57-.86.6-.16,1.3-.27,1.26-1.17a2,2,0,0,0-1-1.9,4.71,4.71,0,0,0-6.44,2.34c-.24.64-.63.58-1.06.58-2.28,0-4.56,0-6.83,0-.93,0-1.2-.25-1.11-1.2a7.45,7.45,0,0,1,5.63-6.81,28.8,28.8,0,0,1,14.72,0c3.15.8,4.87,3.19,5.09,6.91.13,2.09,0,4.19,0,6.28Zm-14,5.7a5,5,0,0,0,5.16-5.31c0-.89-.25-1.34-1.23-1-1.65.54-3.32,1-5,1.59-1.31.45-2.31,1.23-2,2.8S29.75,42.13,31.19,42.11Z" transform="translate(-2.4 -1.19)" style="fill:#fefbfb"/><path d="M148.61,36.57c0,1.92-.08,3.84,0,5.76.06,1.13-.33,1.45-1.37,1.35-.7-.07-1.4,0-2.1,0-2.69-.08-5.09.15-7.51,1.91-3.36,2.44-7.43,2.13-11.27.88a6.31,6.31,0,0,1-4.1-6.47,5.79,5.79,0,0,1,4.54-5.7c3.63-1,7.33-1.89,11-2.86.79-.21,1.85-.24,1.64-1.56a1.92,1.92,0,0,0-2-1.82,10.89,10.89,0,0,0-3.64.26c-.73.22-1.46.62-1.54,1.28-.23,1.74-1.33,1.69-2.63,1.64a48.4,48.4,0,0,0-5.25,0c-1.4.1-1.57-.58-1.38-1.66a7.41,7.41,0,0,1,5.54-6.33,28.91,28.91,0,0,1,14.72,0c3.29.81,5.09,3.58,5.25,7.6.08,1.91,0,3.83,0,5.75Zm-14.29,5.58c3.36,0,5.62-2.34,5.34-5.48-.06-.79-.28-1.2-1.17-.9-1.71.58-3.43,1.1-5.13,1.67-1.31.43-2.15,1.26-1.89,2.71S132.89,42.16,134.32,42.15Z" transform="translate(-2.4 -1.19)" style="fill:#fefbfb"/><path d="M63.24,20.83,75.78,10.29a.72.72,0,0,1,1.07,0L89.78,21.15c-2.77.05-5,.39-7.18-.58-1.74-.77-3.5-1.49-4.4,1.53-.68-3.71-.49-4.18,1.7-4.34-1.07-.94-2-1.76-3-2.6a.77.77,0,0,0-1.21,0c-.92.85-1.87,1.66-2.93,2.59,2.08.26,2.19.53,1.67,4.13-1.06-2.58-2.7-2.08-4.37-1.31C68,21.54,65.68,21.19,63.24,20.83Z" transform="translate(-2.4 -1.19)" style="fill:#feea01"/><path d="M153.32,16c.3-1.11.48-1.77.65-2.44s.58-.63,1.08-.62.55.48.55.87c0,1,0,2,0,3,0,.31.13.78-.36.82s-.51-.5-.54-.88,0-.67-.08-1.12c-.87.52-.25,2-1.3,2s-.58-1.21-1.08-1.73c-.1,0-.21.07-.27.14-.37.46.32,1.58-.58,1.52s-.29-1.06-.36-1.63a16.19,16.19,0,0,1,0-2.09c0-.39-.07-.82.56-.85s.9.08,1,.66S153,14.89,153.32,16Z" transform="translate(-2.4 -1.19)" style="fill:#fefbfb"/><path d="M146.4,13.34a4.33,4.33,0,0,1,2.58-.42c.43,0,1.13-.23,1.25.26.19.78-.61.41-1,.55s-.32.56-.33.87c0,.75,0,1.5,0,2.25,0,.33,0,.74-.48.73s-.51-.38-.51-.74,0-.69,0-1C148,14.71,148.23,13.5,146.4,13.34Z" transform="translate(-2.4 -1.19)" style="fill:#fefbfb"/><path d="M61,29.69A3.87,3.87,0,1,1,61,37.41a4,4,0,0,1-4.28-3.88A4.1,4.1,0,0,1,61,29.69Z" transform="translate(-2.4 -1.19)" style="fill:#ec1e25"/><path d="M31.19,42.11c-1.44,0-2.74-.28-3.06-1.94s.71-2.35,2-2.8c1.65-.56,3.32-1,5-1.59,1-.32,1.19.13,1.23,1A5,5,0,0,1,31.19,42.11Z" transform="translate(-2.4 -1.19)" style="fill:#ec1e25"/><path d="M134.32,42.15c-1.43,0-2.57-.49-2.85-2s.58-2.28,1.89-2.71c1.7-.57,3.42-1.09,5.13-1.67.89-.3,1.11.11,1.17.9C139.94,39.81,137.68,42.14,134.32,42.15Z" transform="translate(-2.4 -1.19)" style="fill:#ec1e25"/></svg>