<?xml version="1.0" encoding="utf-8"?>
<!-- Generator: Adobe Illustrator 24.1.3, SVG Export Plug-In . SVG Version: 6.00 Build 0)  -->
<svg version="1.1" id="Layer_1" xmlns="http://www.w3.org/2000/svg" xmlns:xlink="http://www.w3.org/1999/xlink" x="0px" y="0px"
	 viewBox="0 0 16 16" style="enable-background:new 0 0 16 16;" xml:space="preserve">
<g>
	<path d="M8,12c-2.2,0-4-1.8-4-4s1.8-4,4-4s4,1.8,4,4S10.2,12,8,12z M8,6C6.9,6,6,6.9,6,8s0.9,2,2,2s2-0.9,2-2S9.1,6,8,6z M8,16
		c-4.4,0-8-3.6-8-8s3.6-8,8-8s8,3.6,8,8c0,0.5-0.1,1.1-0.2,1.6c-0.3,1.6-1.9,2.7-3.6,2.3c-0.8-0.2-1.5-0.6-1.9-1.3
		C9.9,10,9.8,9.2,10,8.4c0.1-0.5,0.6-0.9,1.2-0.8c0.5,0.1,0.9,0.6,0.8,1.2c-0.1,0.3,0,0.5,0.1,0.8s0.4,0.4,0.6,0.4
		c0.5,0.1,1.1-0.2,1.2-0.8C14,8.8,14,8.4,14,8c0-3.3-2.7-6-6-6S2,4.7,2,8s2.7,6,6,6c0.7,0,1.4-0.1,2.1-0.4c0.5-0.2,1.1,0.1,1.3,0.6
		c0.2,0.5-0.1,1.1-0.6,1.3C9.9,15.8,8.9,16,8,16z"/>
</g>
</svg>
