<?xml version="1.0" encoding="utf-8"?>
<!-- Generator: Adobe Illustrator 24.1.3, SVG Export Plug-In . SVG Version: 6.00 Build 0)  -->
<svg version="1.1" id="Layer_1" xmlns="http://www.w3.org/2000/svg" xmlns:xlink="http://www.w3.org/1999/xlink" x="0px" y="0px"
	 viewBox="0 0 343.1 84.9" style="enable-background:new 0 0 343.1 84.9;" xml:space="preserve">
<g>
	<path d="M21.6,84.9H4.2c-2.9,0-4.2-1.3-4.2-4.2V49.5c0-4.7,1.4-10.6,4.6-18.9L14.9,3.9c0.9-2.7,2.8-3.9,6-3.9h31.7
		c3.1,0,5,1.2,5.9,3.9l10.3,26.8c3.2,8.3,4.6,14.2,4.6,18.9v31.1c0,2.9-1.3,4.2-4.2,4.2H51.3c-3.2,0-4.6-1.3-4.6-4.2V64.2H25.8v16.5
		C25.8,83.6,24.5,84.9,21.6,84.9z M27,42.7h18.5L40,24.8c-0.6-1.4-1.3-2-2.2-2h-2.9c-0.9,0-1.7,0.6-2.2,2L27,42.7z"/>
	<path d="M115.6,84.9c-19.8,0-29-7.7-29-24.1V24.1c0-16.4,9.2-24.1,29-24.1h29.5c2.9,0,4.2,1.3,4.2,4.2v14.3c0,2.9-1.3,4.2-4.2,4.2
		h-24.5c-5,0-7.2,1.9-7.2,5.9v28.2c0,4,1.8,5.8,5.4,5.8h11.4V44.2c0-2.9,1.3-4.2,4.2-4.2h18.3c2.9,0,4.2,1.3,4.2,4.2v36.4
		c0,2.9-1.3,4.2-4.2,4.2H115.6z"/>
	<path d="M175.6,84.9c-2.9,0-4.2-1.3-4.2-4.2V4.2c0-2.9,1.3-4.2,4.2-4.2h19c2.5,0,4,0.9,5.4,3.5l10.6,19.2c0.8,1.4,1.2,2,2.1,2h1.1
		c0.9,0,1.3-0.6,2.1-2l10.5-19.2c1.4-2.6,2.9-3.5,5.4-3.5H251c2.9,0,4.2,1.3,4.2,4.2v76.4c0,2.9-1.3,4.2-4.2,4.2h-18.2
		c-3.1,0-4.2-1.3-4.2-4.2V39.2l-7,12.9c-1.4,2.7-3.2,3.8-6.3,3.8h-4.7c-3.1,0-4.8-1.1-6.3-3.8l-7-12.9v41.5c0,2.9-1.3,4.2-4.2,4.2
		H175.6z"/>
	<path d="M291.3,84.9H274c-2.9,0-4.2-1.3-4.2-4.2V49.5c0-4.7,1.4-10.6,4.6-18.9l10.3-26.8c0.9-2.7,2.8-3.9,6-3.9h31.7
		c3.1,0,5,1.2,5.9,3.9l10.3,26.8c3.2,8.3,4.6,14.2,4.6,18.9v31.1c0,2.9-1.3,4.2-4.2,4.2h-17.8c-3.2,0-4.6-1.3-4.6-4.2V64.2h-20.9
		v16.5C295.6,83.6,294.3,84.9,291.3,84.9z M296.8,42.7h18.5l-5.5-17.9c-0.6-1.4-1.3-2-2.2-2h-2.9c-0.9,0-1.7,0.6-2.2,2L296.8,42.7z"
		/>
</g>
</svg>
