<?xml version="1.0" encoding="utf-8"?>
<!-- Generator: Adobe Illustrator 24.1.3, SVG Export Plug-In . SVG Version: 6.00 Build 0)  -->
<svg version="1.1" id="icon-logo-star" xmlns="http://www.w3.org/2000/svg" xmlns:xlink="http://www.w3.org/1999/xlink" x="0px"
	 y="0px" viewBox="0 0 144.3 197.3" style="enable-background:new 0 0 144.3 197.3;" xml:space="preserve">
<style type="text/css">
	.st0{fill:#907AB8;}
	.st1{fill:#FFFFFF;}
	.st2{fill:#70C05B;}
</style>
<g>
	<path class="st0" d="M0,197.3V21.2h73.1c32,0,52.6,17.2,52.6,43.9c0,18.9-14,35.4-32.1,38.3v1c23.9,2.3,40.6,19.5,40.6,42.8
		c0,31-22.8,50-60.4,50H0z M31.5,95.4h28.8c22,0,34.3-9.3,34.3-25.6c0-15.4-10.6-24-29.4-24H31.5V95.4z M66.7,172.8
		c23.2,0,35.5-9.6,35.5-27.7c0-17.9-12.7-27.3-36.9-27.3H31.5v55.1H66.7z"/>
</g>
<circle class="st1" cx="117" cy="27.3" r="27.3"/>
<g>
	<g>
		<path class="st2" d="M120.3,33.1l1,15.1h-8.7l1.1-15.1l-12.8,8.5l-4.2-7.8l13.5-6.4l-13.5-6.5l4.3-7.7l12.7,8.3l-1-15h8.8l-1,15
			l12.6-8.4l4.3,7.8l-13.6,6.5l13.6,6.4l-4.4,7.8L120.3,33.1z"/>
	</g>
</g>
</svg>
