<?xml version="1.0" encoding="utf-8"?>
<!-- Generator: Adobe Illustrator 24.1.3, SVG Export Plug-In . SVG Version: 6.00 Build 0)  -->
<svg version="1.1" id="Layer_1" xmlns="http://www.w3.org/2000/svg" xmlns:xlink="http://www.w3.org/1999/xlink" x="0px" y="0px"
	 viewBox="0 0 84.2 64.4" style="enable-background:new 0 0 84.2 64.4;" xml:space="preserve">
<path d="M73,0H11.2C5,0,0,5,0,11.2v42c0,6.2,5,11.2,11.2,11.2H73c6.2,0,11.2-5,11.2-11.2v-42C84.2,5,79.2,0,73,0z M73,10
	c0.2,0,0.5,0.1,0.7,0.2L42.8,29.5c-0.4,0.2-0.9,0.2-1.3,0L10.6,10.2c0.2-0.1,0.4-0.2,0.7-0.2H73z M73,54.4H11.2
	c-0.7,0-1.2-0.5-1.2-1.2V21.6L36.1,38c1.8,1.1,3.9,1.7,6,1.7s4.2-0.6,6-1.7l26.1-16.4v31.6C74.2,53.9,73.7,54.4,73,54.4z"/>
</svg>
